<?xml version="1.0" standalone="no"?>
<!DOCTYPE svg PUBLIC "-//W3C//DTD SVG 1.1//EN" "http://www.w3.org/Graphics/SVG/1.1/DTD/svg11.dtd">
<!--Generator: Xara Designer (www.xara.com), SVG filter version: 6.6.0.0-->
<svg fill="none" fill-rule="evenodd" stroke="black" stroke-width="0.501" stroke-linejoin="bevel" stroke-miterlimit="10" font-family="Times New Roman" font-size="16" style="font-variant-ligatures:none" xmlns:xlink="http://www.w3.org/1999/xlink" xmlns="http://www.w3.org/2000/svg" version="1.1" overflow="visible" width="104.262pt" height="41.055pt" viewBox="358.569 -230.124 104.262 41.055">
 <defs>
	</defs>
 <g id="Layer 1" transform="scale(1 -1)">
  <g id="Group" fill="#ffffff" font-family="Open Sans" stroke="none" stroke-width="0.25">
   <path d="M 398.927,211.643 L 413.254,221.534 L 413.254,224.323 L 415.983,225.448 L 416.031,221.51 L 416.982,222.096 L 417.007,224.276 L 425.362,230.018 L 444.272,211.718 L 438.229,211.643 L 425.322,223.756 L 412.534,211.531 L 398.927,211.643 Z" stroke-linejoin="miter" marker-start="none" marker-end="none"/>
   <path d="M 386.034,220.456 L 386.155,224.323 L 389.275,225.612 L 389.275,221.651 C 389.961,221.904 389.275,221.651 389.961,221.904 L 390.001,223.404 L 399.858,230.124 L 409.59,220.704 L 405.722,218.124 L 399.733,223.704 L 387.069,211.704 L 373.22,211.464 L 386.034,220.456" stroke-linejoin="miter"/>
   <rect x="-1.139" y="-1.122" width="2.279" height="2.245" transform="translate(423.269 217.343) rotate(90)" stroke-linejoin="miter"/>
   <rect x="-1.139" y="-1.122" width="2.279" height="2.245" transform="translate(423.269 213.773) rotate(90)" stroke-linejoin="miter"/>
   <rect x="-1.139" y="-1.122" width="2.279" height="2.244" transform="translate(427.137 217.343) rotate(90)" stroke-linejoin="miter"/>
   <rect x="-1.139" y="-1.122" width="2.279" height="2.244" transform="translate(427.137 213.773) rotate(90)" stroke-linejoin="miter"/>
   <text xml:space="preserve" transform="translate(358.569 199.869) scale(1 -1)" kerning="auto" letter-spacing="0.12em" font-size="10" stroke-linecap="round" stroke-linejoin="round"><tspan x="0" y="0">KAZ PROM FASAD</tspan></text>
   <text xml:space="preserve" transform="translate(391.774 191.876) scale(1 -1)" kerning="auto" letter-spacing="0.32em" font-size="4.5" stroke-linejoin="round" stroke-linecap="round"><tspan x="0" y="0">SHYMKENT</tspan></text>
  </g>
 </g>
</svg>
